<svg width="20" height="20" viewBox="0 0 20 20" fill="none" xmlns="http://www.w3.org/2000/svg">
<path fill-rule="evenodd" clip-rule="evenodd" d="M18.9225 1.07735C19.1087 1.26359 19.1884 1.51604 19.1615 1.75893C19.1539 1.82701 19.138 1.89435 19.1137 1.95926L13.2865 18.6086C13.1736 18.9311 12.8753 19.152 12.5339 19.1659C12.1925 19.1798 11.8772 18.984 11.7384 18.6717L8.53525 11.4646L1.32814 8.26145C1.01591 8.12268 0.820021 7.80737 0.833949 7.46597C0.847877 7.12457 1.0688 6.82627 1.3913 6.71339L18.0406 0.88615C18.1059 0.861699 18.1737 0.845727 18.2422 0.838237C18.2925 0.8327 18.343 0.831804 18.393 0.835407C18.5859 0.849193 18.775 0.929841 18.9225 1.07735ZM15.1619 3.6595L3.92582 7.59211L8.98203 9.83932L15.1619 3.6595ZM10.1605 11.0178L16.3404 4.83801L12.4078 16.074L10.1605 11.0178Z" fill="white"/>
</svg>
