<svg width="20" height="20" viewBox="0 0 20 20" fill="none" xmlns="http://www.w3.org/2000/svg">
<path d="M2.50008 4.1665C2.03984 4.1665 1.66675 4.5396 1.66675 4.99984C1.66675 5.46007 2.03984 5.83317 2.50008 5.83317H2.50841C2.96865 5.83317 3.34175 5.46007 3.34175 4.99984C3.34175 4.5396 2.96865 4.1665 2.50841 4.1665H2.50008Z" fill="#8C9C9C"/>
<path d="M6.66675 4.1665C6.20651 4.1665 5.83341 4.5396 5.83341 4.99984C5.83341 5.46007 6.20651 5.83317 6.66675 5.83317H17.5001C17.9603 5.83317 18.3334 5.46007 18.3334 4.99984C18.3334 4.5396 17.9603 4.1665 17.5001 4.1665H6.66675Z" fill="#8C9C9C"/>
<path d="M6.66675 9.1665C6.20651 9.1665 5.83341 9.5396 5.83341 9.99984C5.83341 10.4601 6.20651 10.8332 6.66675 10.8332H17.5001C17.9603 10.8332 18.3334 10.4601 18.3334 9.99984C18.3334 9.5396 17.9603 9.1665 17.5001 9.1665H6.66675Z" fill="#8C9C9C"/>
<path d="M5.83341 14.9998C5.83341 14.5396 6.20651 14.1665 6.66675 14.1665H17.5001C17.9603 14.1665 18.3334 14.5396 18.3334 14.9998C18.3334 15.4601 17.9603 15.8332 17.5001 15.8332H6.66675C6.20651 15.8332 5.83341 15.4601 5.83341 14.9998Z" fill="#8C9C9C"/>
<path d="M1.66675 9.99984C1.66675 9.5396 2.03984 9.1665 2.50008 9.1665H2.50841C2.96865 9.1665 3.34175 9.5396 3.34175 9.99984C3.34175 10.4601 2.96865 10.8332 2.50841 10.8332H2.50008C2.03984 10.8332 1.66675 10.4601 1.66675 9.99984Z" fill="#8C9C9C"/>
<path d="M2.50008 14.1665C2.03984 14.1665 1.66675 14.5396 1.66675 14.9998C1.66675 15.4601 2.03984 15.8332 2.50008 15.8332H2.50841C2.96865 15.8332 3.34175 15.4601 3.34175 14.9998C3.34175 14.5396 2.96865 14.1665 2.50841 14.1665H2.50008Z" fill="#8C9C9C"/>
</svg>
