<svg width="20" height="20" viewBox="0 0 20 20" fill="none" xmlns="http://www.w3.org/2000/svg">
<g clip-path="url(#clip0_1631_170)">
<path fill-rule="evenodd" clip-rule="evenodd" d="M18.9225 1.0776C19.1087 1.26383 19.1884 1.51629 19.1615 1.75917C19.1539 1.82726 19.138 1.89459 19.1137 1.95951L13.2865 18.6088C13.1736 18.9313 12.8753 19.1522 12.5339 19.1662C12.1925 19.1801 11.8772 18.9842 11.7384 18.672L8.53525 11.4649L1.32814 8.2617C1.01591 8.12293 0.820021 7.80762 0.833949 7.46622C0.847877 7.12482 1.0688 6.82651 1.3913 6.71364L18.0406 0.886395C18.1059 0.861943 18.1737 0.845971 18.2422 0.838481C18.2925 0.832945 18.343 0.832048 18.393 0.835651C18.5859 0.849437 18.775 0.930086 18.9225 1.0776ZM15.1619 3.65974L3.92582 7.59236L8.98203 9.83956L15.1619 3.65974ZM10.1605 11.0181L16.3404 4.83826L12.4078 16.0743L10.1605 11.0181Z" fill="#8C9C9C"/>
</g>
<defs>
<clipPath id="clip0_1631_170">
<rect width="20" height="20" fill="white"/>
</clipPath>
</defs>
</svg>
