<svg width="16" height="16" viewBox="0 0 16 16" fill="none" xmlns="http://www.w3.org/2000/svg">
<path d="M6.66658 6.6665C7.03478 6.6665 7.33325 6.96498 7.33325 7.33317V11.3332C7.33325 11.7014 7.03478 11.9998 6.66658 11.9998C6.2984 11.9998 5.99992 11.7014 5.99992 11.3332V7.33317C5.99992 6.96498 6.2984 6.6665 6.66658 6.6665Z" fill="#2D3648"/>
<path d="M9.99992 11.3332V7.33317C9.99992 6.96498 9.70144 6.6665 9.33325 6.6665C8.96506 6.6665 8.66658 6.96498 8.66658 7.33317V11.3332C8.66658 11.7014 8.96506 11.9998 9.33325 11.9998C9.70144 11.9998 9.99992 11.7014 9.99992 11.3332Z" fill="#2D3648"/>
<path fill-rule="evenodd" clip-rule="evenodd" d="M4.66659 3.33317V2.6665C4.66659 2.13607 4.8773 1.62736 5.25237 1.25229C5.62744 0.877218 6.13615 0.666504 6.66658 0.666504H9.33325C9.86368 0.666504 10.3724 0.877218 10.7475 1.25229C11.1225 1.62736 11.3333 2.13607 11.3333 2.6665V3.33317H13.9999C14.3681 3.33317 14.6666 3.63165 14.6666 3.99984C14.6666 4.36803 14.3681 4.6665 13.9999 4.6665H13.3333V13.3332C13.3333 13.8636 13.1225 14.3723 12.7475 14.7474C12.3724 15.1225 11.8637 15.3332 11.3333 15.3332H4.66659C4.13615 15.3332 3.62744 15.1225 3.25237 14.7474C2.8773 14.3723 2.66659 13.8636 2.66659 13.3332V4.6665H1.99992C1.63173 4.6665 1.33325 4.36803 1.33325 3.99984C1.33325 3.63165 1.63173 3.33317 1.99992 3.33317H4.66659ZM6.19518 2.1951C6.32021 2.07008 6.48977 1.99984 6.66658 1.99984H9.33325C9.51006 1.99984 9.67963 2.07008 9.80466 2.1951C9.92968 2.32012 9.99992 2.48969 9.99992 2.6665V3.33317H5.99992V2.6665C5.99992 2.48969 6.07016 2.32012 6.19518 2.1951ZM3.99992 4.6665V13.3332C3.99992 13.51 4.07016 13.6796 4.19518 13.8046C4.3202 13.9296 4.48977 13.9998 4.66659 13.9998H11.3333C11.5101 13.9998 11.6796 13.9296 11.8047 13.8046C11.9297 13.6796 11.9999 13.51 11.9999 13.3332V4.6665H3.99992Z" fill="#2D3648"/>
</svg>
